<svg width="24" height="24" viewBox="0 0 24 24" fill="none" xmlns="http://www.w3.org/2000/svg">
<path d="M21.9204 22.9975L20.46 6.73362C20.4201 6.28947 20.0479 5.94926 19.602 5.94926H16.5903V4.59096C16.5903 2.05951 14.5309 0 11.9996 0C9.46835 0 7.40919 2.05951 7.40919 4.59096V5.94926H4.39545C3.94958 5.94926 3.57732 6.28947 3.53747 6.73362L2.07132 23.0615C2.04972 23.3025 2.13035 23.5413 2.29356 23.7197C2.45678 23.8982 2.68752 23.9999 2.9293 23.9999H21.0682C21.0689 23.9999 21.0699 23.9999 21.0705 23.9999C21.5464 23.9999 21.932 23.6142 21.932 23.1385C21.9319 23.0906 21.928 23.0434 21.9204 22.9975ZM9.13205 4.59096C9.13205 3.00949 10.4185 1.72286 11.9997 1.72286C13.581 1.72286 14.8676 3.00949 14.8676 4.59096V5.94926H9.13205V4.59096ZM3.87159 22.2771L5.18303 7.67212H7.40919V9.21259C7.40919 9.68832 7.79477 10.074 8.27062 10.074C8.74647 10.074 9.13205 9.68832 9.13205 9.21259V7.67212H14.8676V9.21259C14.8676 9.68832 15.2531 10.074 15.729 10.074C16.2048 10.074 16.5904 9.68832 16.5904 9.21259V7.67212H18.8145L20.126 22.2771H3.87159Z" fill="white"/>
</svg>
